# xmcd
#
# Track frame offsets:
#	150
#	12832
#	32887
#	52705
#	72745
#	90675
#	106925
#	124780
#	142280
#	161832
#
# Disc length: 2401 seconds
#
# Revision: 1
# Processed by: cddbd v1.5PL3 Copyright (c) Steve Scherf et al.
# Submitted via: CDex 1.50Beta5
#
DISCID=8b095f0a
DTITLE=藤田朋子 - Colors of Love
DYEAR=1900
DGENRE=Pop
TTITLE0=Cheez, Pleez
TTITLE1=I'm Ready For Love
TTITLE2=Shooting For The Stars
TTITLE3=Run To Him
TTITLE4=More Than Just A Feeling
TTITLE5=Marshmallow Words
TTITLE6=Rainy Night
TTITLE7=Color Me With Love
TTITLE8=Time To Say Goodbye
TTITLE9=Home
EXTD=
EXTT0=
EXTT1=
EXTT2=
EXTT3=
EXTT4=
EXTT5=
EXTT6=
EXTT7=
EXTT8=
EXTT9=
PLAYORDER=
